<svg width="24" height="25" viewBox="0 0 24 25" fill="none" xmlns="http://www.w3.org/2000/svg">
<path fill-rule="evenodd" clip-rule="evenodd" d="M4 3.98755C4.26522 3.98755 4.51957 4.09291 4.70711 4.28044C4.89464 4.46798 5 4.72233 5 4.98755V5.98755H7V4.98755C7 4.72233 7.10536 4.46798 7.29289 4.28044C7.48043 4.09291 7.73478 3.98755 8 3.98755C8.26522 3.98755 8.51957 4.09291 8.70711 4.28044C8.89464 4.46798 9 4.72233 9 4.98755V5.98755H11V4.98755C11 4.72233 11.1054 4.46798 11.2929 4.28044C11.4804 4.09291 11.7348 3.98755 12 3.98755C12.2652 3.98755 12.5196 4.09291 12.7071 4.28044C12.8946 4.46798 13 4.72233 13 4.98755V5.98755H15V4.98755C15 4.72233 15.1054 4.46798 15.2929 4.28044C15.4804 4.09291 15.7348 3.98755 16 3.98755C16.2652 3.98755 16.5196 4.09291 16.7071 4.28044C16.8946 4.46798 17 4.72233 17 4.98755V5.98755H19V4.98755C19 4.72233 19.1054 4.46798 19.2929 4.28044C19.4804 4.09291 19.7348 3.98755 20 3.98755C20.2652 3.98755 20.5196 4.09291 20.7071 4.28044C20.8946 4.46798 21 4.72233 21 4.98755V18.9875C21 19.7832 20.6839 20.5463 20.1213 21.1089C19.5587 21.6715 18.7956 21.9875 18 21.9875H6C5.20435 21.9875 4.44129 21.6715 3.87868 21.1089C3.31607 20.5463 3 19.7832 3 18.9875V4.98755C3 4.72233 3.10536 4.46798 3.29289 4.28044C3.48043 4.09291 3.73478 3.98755 4 3.98755ZM19 7.98755H5V18.9875C5 19.2528 5.10536 19.5071 5.29289 19.6947C5.48043 19.8822 5.73478 19.9875 6 19.9875H18C18.2652 19.9875 18.5196 19.8822 18.7071 19.6947C18.8946 19.5071 19 19.2528 19 18.9875V7.98755ZM13 10.9875C13 11.2528 12.8946 11.5071 12.7071 11.6947C12.5196 11.8822 12.2652 11.9875 12 11.9875C11.7348 11.9875 11.4804 11.8822 11.2929 11.6947C11.1054 11.5071 11 11.2528 11 10.9875C11 10.7223 11.1054 10.468 11.2929 10.2804C11.4804 10.0929 11.7348 9.98755 12 9.98755C12.2652 9.98755 12.5196 10.0929 12.7071 10.2804C12.8946 10.468 13 10.7223 13 10.9875ZM16 11.9875C16.2652 11.9875 16.5196 11.8822 16.7071 11.6947C16.8946 11.5071 17 11.2528 17 10.9875C17 10.7223 16.8946 10.468 16.7071 10.2804C16.5196 10.0929 16.2652 9.98755 16 9.98755C15.7348 9.98755 15.4804 10.0929 15.2929 10.2804C15.1054 10.468 15 10.7223 15 10.9875C15 11.2528 15.1054 11.5071 15.2929 11.6947C15.4804 11.8822 15.7348 11.9875 16 11.9875ZM9 13.9875C9 14.2528 8.89464 14.5071 8.70711 14.6947C8.51957 14.8822 8.26522 14.9875 8 14.9875C7.73478 14.9875 7.48043 14.8822 7.29289 14.6947C7.10536 14.5071 7 14.2528 7 13.9875C7 13.7223 7.10536 13.468 7.29289 13.2804C7.48043 13.0929 7.73478 12.9875 8 12.9875C8.26522 12.9875 8.51957 13.0929 8.70711 13.2804C8.89464 13.468 9 13.7223 9 13.9875ZM12 14.9875C12.2652 14.9875 12.5196 14.8822 12.7071 14.6947C12.8946 14.5071 13 14.2528 13 13.9875C13 13.7223 12.8946 13.468 12.7071 13.2804C12.5196 13.0929 12.2652 12.9875 12 12.9875C11.7348 12.9875 11.4804 13.0929 11.2929 13.2804C11.1054 13.468 11 13.7223 11 13.9875C11 14.2528 11.1054 14.5071 11.2929 14.6947C11.4804 14.8822 11.7348 14.9875 12 14.9875ZM17 13.9875C17 14.2528 16.8946 14.5071 16.7071 14.6947C16.5196 14.8822 16.2652 14.9875 16 14.9875C15.7348 14.9875 15.4804 14.8822 15.2929 14.6947C15.1054 14.5071 15 14.2528 15 13.9875C15 13.7223 15.1054 13.468 15.2929 13.2804C15.4804 13.0929 15.7348 12.9875 16 12.9875C16.2652 12.9875 16.5196 13.0929 16.7071 13.2804C16.8946 13.468 17 13.7223 17 13.9875ZM8 17.9875C8.26522 17.9875 8.51957 17.8822 8.70711 17.6947C8.89464 17.5071 9 17.2528 9 16.9875C9 16.7223 8.89464 16.468 8.70711 16.2804C8.51957 16.0929 8.26522 15.9875 8 15.9875C7.73478 15.9875 7.48043 16.0929 7.29289 16.2804C7.10536 16.468 7 16.7223 7 16.9875C7 17.2528 7.10536 17.5071 7.29289 17.6947C7.48043 17.8822 7.73478 17.9875 8 17.9875ZM13 16.9875C13 17.2528 12.8946 17.5071 12.7071 17.6947C12.5196 17.8822 12.2652 17.9875 12 17.9875C11.7348 17.9875 11.4804 17.8822 11.2929 17.6947C11.1054 17.5071 11 17.2528 11 16.9875C11 16.7223 11.1054 16.468 11.2929 16.2804C11.4804 16.0929 11.7348 15.9875 12 15.9875C12.2652 15.9875 12.5196 16.0929 12.7071 16.2804C12.8946 16.468 13 16.7223 13 16.9875ZM16 17.9875C16.2652 17.9875 16.5196 17.8822 16.7071 17.6947C16.8946 17.5071 17 17.2528 17 16.9875C17 16.7223 16.8946 16.468 16.7071 16.2804C16.5196 16.0929 16.2652 15.9875 16 15.9875C15.7348 15.9875 15.4804 16.0929 15.2929 16.2804C15.1054 16.468 15 16.7223 15 16.9875C15 17.2528 15.1054 17.5071 15.2929 17.6947C15.4804 17.8822 15.7348 17.9875 16 17.9875Z" fill="#515151"/>
</svg>
