<svg width="24" height="25" viewBox="0 0 24 25" fill="none" xmlns="http://www.w3.org/2000/svg">
<path fill-rule="evenodd" clip-rule="evenodd" d="M4 12.9875C4 10.8658 4.84285 8.83099 6.34315 7.33069C7.84344 5.8304 9.87827 4.98755 12 4.98755C14.1217 4.98755 16.1566 5.8304 17.6569 7.33069C19.1571 8.83099 20 10.8658 20 12.9875C20 15.1093 19.1571 17.1441 17.6569 18.6444C16.1566 20.1447 14.1217 20.9875 12 20.9875C9.87827 20.9875 7.84344 20.1447 6.34315 18.6444C4.84285 17.1441 4 15.1093 4 12.9875ZM12 2.98755C6.477 2.98755 2 7.46455 2 12.9875C2 18.5105 6.477 22.9875 12 22.9875C17.523 22.9875 22 18.5105 22 12.9875C22 7.46455 17.523 2.98755 12 2.98755ZM13 6.98755C13 6.72233 12.8946 6.46798 12.7071 6.28044C12.5196 6.09291 12.2652 5.98755 12 5.98755C11.7348 5.98755 11.4804 6.09291 11.2929 6.28044C11.1054 6.46798 11 6.72233 11 6.98755V12.9875C11.0001 13.2527 11.1055 13.5071 11.293 13.6945L14.293 16.6945C14.4816 16.8767 14.7342 16.9775 14.9964 16.9752C15.2586 16.9729 15.5094 16.8678 15.6948 16.6824C15.8802 16.497 15.9854 16.2461 15.9877 15.9839C15.99 15.7218 15.8892 15.4692 15.707 15.2805L13 12.5735V6.98755Z" fill="#515151"/>
</svg>
