<svg width="16" height="16" viewBox="0 0 16 16" fill="none" xmlns="http://www.w3.org/2000/svg">
<circle cx="8" cy="8" r="8" fill="#3D3D3D"/>
<path d="M4.06522 11C3.31884 11 2.78623 10.8556 2.46739 10.5668C2.1558 10.2727 2 9.81283 2 9.18717C2 8.98931 2.01449 8.78075 2.04348 8.5615C2.07971 8.34225 2.12319 8.1123 2.17391 7.87166C2.2971 7.28877 2.48551 6.78342 2.73913 6.35562C3 5.92781 3.35145 5.59626 3.79348 5.36096C4.23551 5.12032 4.7971 5 5.47826 5C6.05072 5 6.53623 5.02674 6.93478 5.08021C7.33333 5.12834 7.68841 5.18449 8 5.24866L7.93478 5.6016C7.63043 5.55348 7.27174 5.5107 6.8587 5.47326C6.44565 5.43583 5.99275 5.41711 5.5 5.41711C4.93478 5.41711 4.47464 5.51872 4.11957 5.72193C3.76449 5.92513 3.48188 6.21658 3.27174 6.59626C3.06884 6.97594 2.90942 7.44385 2.79348 8C2.69203 8.48128 2.6413 8.88503 2.6413 9.21123C2.6413 9.68182 2.76449 10.0267 3.01087 10.246C3.26449 10.4652 3.67754 10.5749 4.25 10.5749C4.43841 10.5749 4.6413 10.5615 4.8587 10.5348C5.08333 10.508 5.30435 10.4759 5.52174 10.4385C5.74638 10.4011 5.94928 10.3636 6.13043 10.3262C6.31159 10.2834 6.4529 10.246 6.55435 10.2139L6.96739 8.28075H4.8913L4.95652 7.92781C5.15217 7.90642 5.39855 7.89305 5.69565 7.8877C6 7.87701 6.36957 7.87166 6.80435 7.87166C6.8913 7.87166 6.98551 7.87433 7.08696 7.87968C7.18841 7.87968 7.28623 7.88235 7.38043 7.8877C7.48188 7.8877 7.57609 7.89037 7.66304 7.89572L7.01087 10.9519H6.55435L6.53261 10.5348C6.43841 10.5668 6.2971 10.6096 6.1087 10.6631C5.92754 10.7166 5.71739 10.7701 5.47826 10.8235C5.24638 10.8717 5.00725 10.9144 4.76087 10.9519C4.51449 10.984 4.28261 11 4.06522 11Z" fill="white"/>
<path d="M8 11L8.91837 6.36216C9 5.99459 9.14286 5.71351 9.34694 5.51892C9.55102 5.31892 9.79252 5.18378 10.0714 5.11351C10.3503 5.03784 10.6327 5 10.9184 5C11.5034 5 12.0408 5.01081 12.5306 5.03243C13.0272 5.04865 13.517 5.07297 14 5.10541L13.8061 6.11081H11.1429C10.898 6.11081 10.7177 6.15946 10.602 6.25676C10.4864 6.34865 10.4082 6.48919 10.3673 6.67838L10.1837 7.64324L13.0102 7.70811L12.8163 8.65676L9.96939 8.71351L9.5102 11H8Z" fill="white"/>
</svg>
